# xmcd
#
# Track frame offsets: 
#        150
#        13915
#        29360
#        43250
#        55930
#        69230
#        82945
#        95187
#        117429
#        134665
#        163575
#        196622
#        219777
#        242647
#
# Disc length: 3605 seconds
#
# Revision: 7
# Processed by: cddbd v1.5.1PL0 Copyright (c) Steve Scherf et al.
# Submitted via: ExactAudioCopy v0.95a5
#
DISCID=bf0e130e
DTITLE=The Gold Collection - The Blues
DYEAR=1998
DGENRE=Blues
TTITLE0=Mississippi John Hurt - Stack O' Lee Blues
TTITLE1=Mississippi John Hurt - Frankie
TTITLE2=Blind Lemon Jefferson - Hangman's Blues
TTITLE3=Blind Lemon Jefferson - Low Down Mojo Blues
TTITLE4=Elmore James - Dust My Broom
TTITLE5=Elmore James - Standing at the Crossroads
TTITLE6=Muddy Waters - Baby, Please Don't Go
TTITLE7=Muddy Waters - Got My Mojo Working
TTITLE8=Howlin' Wolf - All My Life
TTITLE9=Howlin' Wolf - Goin' Down Slow
TTITLE10=Freddie King - The Moon is Rising
TTITLE11=Freddie King - Feelin' Alright
TTITLE12=B.B. King - The Thrill is Gone
TTITLE13=B.B. King - Payin' the Cost to Be the Boss
EXTD=
EXTT0=
EXTT1=
EXTT2=
EXTT3=
EXTT4=
EXTT5=
EXTT6=
EXTT7=
EXTT8=
EXTT9=
EXTT10=
EXTT11=
EXTT12=
EXTT13=
PLAYORDER=
